<?xml version="1.0" encoding="UTF-8" standalone="no"?>
<!-- Created with Inkscape (http://www.inkscape.org/) -->

<svg
   width="100"
   height="116"
   viewBox="0 0 26.458333 30.691666"
   version="1.1"
   id="svg1"
   inkscape:version="1.3.2 (091e20e, 2023-11-25)"
   sodipodi:docname="rabbit.svg"
   xmlns:inkscape="http://www.inkscape.org/namespaces/inkscape"
   xmlns:sodipodi="http://sodipodi.sourceforge.net/DTD/sodipodi-0.dtd"
   xmlns="http://www.w3.org/2000/svg"
   xmlns:svg="http://www.w3.org/2000/svg">
  <sodipodi:namedview
     id="namedview1"
     pagecolor="#ffffff"
     bordercolor="#000000"
     borderopacity="0.25"
     inkscape:showpageshadow="2"
     inkscape:pageopacity="0.0"
     inkscape:pagecheckerboard="0"
     inkscape:deskcolor="#d1d1d1"
     inkscape:document-units="mm"
     inkscape:zoom="1.8690455"
     inkscape:cx="213.21044"
     inkscape:cy="142.85367"
     inkscape:window-width="1800"
     inkscape:window-height="1097"
     inkscape:window-x="0"
     inkscape:window-y="44"
     inkscape:window-maximized="0"
     inkscape:current-layer="layer1"
     showguides="true" />
  <defs
     id="defs1" />
  <g
     inkscape:label="Layer 1"
     inkscape:groupmode="layer"
     id="layer1">
    <path
       id="path6"
       style="fill:#767381;fill-opacity:1;fill-rule:nonzero;stroke:none;stroke-width:0.74575"
       d="m 3.5832148,1.4366404 0.3593999,0.14528 c 0,0 1.63764,0.671872 2.38582,2.682946 0.452779,1.219382 0.455599,2.264766 0.39108,2.887236 0.219119,-0.0292 0.491599,-0.06088 0.802919,-0.08304 0.7072,-0.0501 1.5582,-0.06638 2.24162,0.16932 0.6554403,0.225916 1.2022203,0.65699 1.5894403,1.097874 0.1938,0.220842 0.34752,0.44492 0.45446,0.664176 0.107,0.219236 0.1946,0.42818 0.1236,0.71445 -0.0562,0.22655 -0.2792,1.0745136 -1.00722,1.7959136 -0.37318,0.369814 -0.8852,0.696142 -1.5501003,0.88703 l -0.118,0.962412 c 0.22476,0.08584 0.5146,0.14676 0.9831603,0.607376 0.51176,0.503096 0.99218,1.305166 1.09242,2.461194 l 11.80126,-5.222798 v 3.14395 c 0.32654,0.10698 0.5954,0.344382 0.83788,0.670734 0.32754,0.440818 0.62644,1.03181 0.85098,1.73038 0.44909,1.397126 0.60653,3.225786 -0.0458,4.999948 -0.65862,1.791182 -0.84358,1.782686 -1.44852,2.947314 0.71832,1.298444 1.80027,3.579806 1.80027,3.579806 l 0.47848,0.67293 h -0.82585 l -4.59574,-0.0164 0.45004,-0.660902 c 0,0 1.0578,-2.278042 1.75116,-3.571094 -0.62458,-1.167612 -0.82814,-1.161528 -1.48678,-2.95277 -0.6524,-1.774248 -0.49412,-3.602846 -0.0448,-4.999946 0.2247,-0.69855 0.52252,-1.28853 0.84988,-1.729286 0.1748,-0.235346 0.36402,-0.42378 0.5779,-0.551674 v -1.954314 l -10.84868,4.80441 c 0.1832,0.35256 0.5047,1.003738 0.75046,1.697596 0.1786,0.504132 0.32086,1.014226 0.3048,1.49115 -0.008,0.238472 -0.0586,0.485698 -0.21848,0.698044 -0.1598,0.212366 -0.4349,0.343578 -0.71444,0.362686 -0.35854,0.02454 -0.68632,-0.05886 -0.96678,-0.203188 4.6e-4,0.444962 -0.0696,0.858914 -0.1518,1.19837 -0.0698,0.287666 -0.148,0.51937 -0.21192,0.683838 0.88002,0.299482 1.34738,0.994438 1.49222,1.69432 0.29284,1.414982 -0.4217,2.936404 -0.4217,2.936404 l -0.014,0.03278 c 0.24106,0.0058 0.49142,0.03004 0.7494,0.07866 l 0.004,-0.0011 c 1.08704,0.20675 1.6423,0.85538 1.81994,1.433228 0.0606,0.19716 0.0842,0.385536 0.0896,0.549494 l -0.0098,0.90261 -9.7999613,-0.05266 c -0.5128799,0.15342 -1.2457459,0.19418 -1.8369459,-0.0176 l -0.70711,-0.463774 c -0.1746,-0.240778 -0.593884,-0.871332 -0.662144,-1.132212 -0.1668,-0.637056 -0.0788,-1.31563 0.4293,-1.688866 0.0732,-0.05384 0.1496,-0.09836 0.2283,-0.13436 -0.41518,-0.634518 -0.60796,-1.36186 -0.63686,-2.115986 -0.037,-0.96681 0.1742,-1.98913 0.48284,-3.03035 0.61694,-2.081128 1.63198,-4.258082 2.03952,-6.065032 v -0.0044 c 0.3501799,-1.554652 1.0145199,-2.227454 1.3666199,-2.638172 0.1762,-0.20569 0.24948,-0.313836 0.27638,-0.483922 0.0268,-0.17016 -0.0014,-0.4612 -0.1934,-0.977718 -0.665,-1.785114 0.1872,-3.4265016 0.71992,-4.2144916 -0.61872,-0.310432 -1.73764,-1.04532 -2.2732999,-2.487428 l -0.2097,-0.57351 h 0.153 c -0.3838,-1.683814 0.0952,-3.00957 0.0952,-3.00957 z m 0.5822599,1.553406 c -0.1474,0.446104 -0.4499199,0.860456 0.004,2.079922 l 0.004,0.0088 c 0.4062,1.080752 1.06756,1.560678 1.57304,1.837434 0.0764,-0.369198 0.30086,-0.963152 -0.2152,-2.353044 -0.45386,-1.219974 -0.96082,-1.332922 -1.3666,-1.573064 z m 3.931979,4.907082 c -0.1744,0.0028 -0.34866,0.0102 -0.51342,0.02186 -0.5622,0.03996 -0.883479,0.09506 -1.007199,0.11578 -0.012,0.0144 -0.0432,0.05504 -0.071,0.09066 l -0.014,0.05028 -0.018,-0.0066 c -0.35398,0.470964 -1.35144,1.9954516 -0.75266,3.6027616 0.21726,0.584586 0.30062,1.01879 0.23922,1.407036 -0.0612,0.388224 -0.27268,0.669568 -0.4741,0.904512 -0.40282,0.469886 -0.86646,0.874388 -1.18088,2.275484 -0.44052,1.956216 -1.4670799,4.132788 -2.0570199,6.122934 -0.29496,0.995072 -0.47704,1.936176 -0.4457,2.75395 0.0312,0.8178 0.25856,1.501512 0.8051,2.076668 0.018,0.019 0.0396,0.04062 0.058,0.06008 0.25784,0.10434 0.47704,0.264114 0.66528,0.430418 0.34734,0.306858 0.6032199,0.659042 0.7111399,0.81822 0.30546,0.19816 0.64766,0.36556 1.04764,0.466436 1.1499,0.290072 2.854079,0.03988 5.4456393,-1.668086 0.0492,-0.12556 0.54672,-1.356448 0.35064,-2.303894 -0.103,-0.49745 -0.32326,-0.863248 -0.9536603,-1.06946 -0.6304,-0.206106 -1.73112,-0.202334 -3.476039,0.322246 l -0.248,-0.813846 c 1.328939,-0.399578 2.353299,-0.538164 3.160339,-0.474092 0.008,-0.0194 0.014,-0.03672 0.0272,-0.06226 l 0.004,0.0032 c 0.0496,-0.11648 0.1406,-0.353892 0.2141,-0.656524 0.1468,-0.605262 0.2162,-1.450222 -0.1236,-2.146576 -0.1934,-0.333638 -0.23272,-0.50563 -0.3015,-0.710066 -0.21718,0.10654 -0.337,0.213356 -0.76796,0.25234 -0.34426,0.03108 -0.74332,-0.0088 -1.11536,-0.227228 -0.37202,-0.218096 -0.690859,-0.603572 -0.895759,-1.160126 l 0.797459,-0.297138 c 0.1534,0.416276 0.3426,0.613612 0.52764,0.72208 0.185,0.10844 0.39236,0.13566 0.61176,0.1158 0.43872,-0.03976 0.84988,-0.28075 0.84988,-0.28075 l 0.4872,-0.301512 0.1486,0.549498 c 0,0 0.1384,0.48557 0.4238403,0.962412 l 0.002,-0.0011 c 0.004,0.0094 0.008,0.019 0.012,0.0284 0.002,0.0044 0.004,0.0088 0.008,0.0132 0.151,0.244686 0.33972,0.476942 0.54512,0.62811 0.20542,0.15114 0.41098,0.227884 0.67622,0.209746 0.0942,-0.0062 0.084,-0.0142 0.095,-0.0284 0.01,-0.0148 0.0414,-0.08378 0.0458,-0.215202 0.008,-0.26297 -0.0936,-0.719666 -0.25562,-1.17653 -0.32364,-0.913684 -0.84226,-1.845066 -0.84226,-1.845066 l -0.058,-0.10814 0.008,-0.12784 c 0.0986,-1.402998 -0.3712,-2.17522 -0.8499003,-2.645804 -0.47866,-0.470562 -0.95366,-0.607354 -0.95366,-0.607376 l -0.3474,-0.09942 0.1572,-1.313072 c -0.43458,0.03654 -0.91538,0.0226 -1.44962,-0.06118 l 0.132,-0.837858 c 1.6893,0.264876 2.5938,-0.1999 3.1461403,-0.747214 0.5323,-0.52747 0.71614,-1.1580796 0.77014,-1.3687956 -0.006,0.0034 -0.004,-0.06978 -0.0514,-0.16712 -0.063,-0.12916 -0.1788,-0.30208 -0.33102,-0.47519 -0.30406,-0.346222 -0.7555203,-0.697198 -1.2256603,-0.858658 h -0.004 c -0.3311,-0.11416 -0.8629,-0.15064 -1.38626,-0.14202 z m 0.69588,0.608476 c 0.0792,0.0011 0.1582,0.008 0.23596,0.02076 0.41486,0.06786 0.82252,0.283478 1.1601403,0.619384 l -0.6030003,0.601922 c -0.22154,-0.22042 -0.48166,-0.348738 -0.6937,-0.383426 -0.21206,-0.03466 -0.34986,0.0108 -0.43696,0.0994 l -0.60302,-0.598648 c 0.2539,-0.255872 0.5979,-0.364148 0.94058,-0.359392 z M 22.840594,15.12341 c -0.0326,0.019 -0.22364,0.09452 -0.45444,0.405284 -0.25408,0.342056 -0.5219,0.85995 -0.72208,1.4824 -0.40046,1.244874 -0.53804,2.893556 0.0326,4.446094 0.51426,1.3986 0.64366,1.279862 1.15574,2.296224 0.4989,-1.015812 0.6081,-0.895866 1.123,-2.296224 0.57092,-1.5526 0.43298,-3.20126 0.0328,-4.446094 -0.20022,-0.62243 -0.4636,-1.140406 -0.7177,-1.4824 -0.22966,-0.3091 -0.41462,-0.386068 -0.45008,-0.405284 z M 9.6322937,22.890416 c 10e-5,-2e-5 -0.153,0.06992 -0.153,0.06992 2.4e-4,-1.7e-4 -0.0526,0.05308 -0.0656,0.06556 l 0.166,0.07866 c 0.20334,0.02682 0.39416,0.06498 0.5691603,0.11906 -0.0016,-0.0108 -0.004,-0.02846 -0.004,-0.0284 4e-5,1.26e-4 -0.1576003,-0.234922 -0.1572003,-0.23488 6e-5,4.2e-5 -0.35514,-0.06992 -0.35504,-0.06992 z m 13.2290603,2.75833 c -0.42954,0.765222 -1.08076,2.266498 -1.19728,2.44371 l 2.4317,0.0044 c -0.1242,-0.18076 -0.78716,-1.678064 -1.23442,-2.448086 z M 2.1012548,28.10666 c -0.0756,10e-4 -0.1454,0.02798 -0.23926,0.09724 -0.083,0.06088 -0.215,0.393108 -0.1114,0.788734 0.098,0.374062 0.3557,0.756874 0.85644,0.978794 h 1.3851599 c 0.1266,-0.04166 0.25046,-0.091 0.36816,-0.1453 0.0328,-0.015 0.0624,-0.03042 0.094,-0.0459 -1.0677199,-0.39332 -1.7596199,-1.126324 -2.2590799,-1.663732 -0.033,-0.0066 -0.0642,-0.0102 -0.094,-0.0098 z m 9.1204792,0.654348 c -0.62912,-0.0104 -1.1845,0.1342 -1.6309403,0.305886 -0.29762,0.1148 -0.54206,0.243444 -0.73084,0.343008 -0.0942,0.0499 -0.1732,0.09144 -0.24798,0.12782 -0.0376,0.019 -0.075,0.0366 -0.1236,0.05352 -0.0484,0.0168 -0.0974,0.05564 -0.26872,0.02062 l 0.0011,-0.0064 c -0.4883,0.17788 -0.94292,0.297644 -1.36658,0.365966 h 6.2398403 c -0.004,-0.09196 -0.018,-0.19452 -0.0514,-0.30151 -0.101,-0.328908 -0.31554,-0.681132 -1.16888,-0.842256 -0.2249,-0.04264 -0.44246,-0.0632 -0.65218,-0.06662 z"
       sodipodi:nodetypes="ccccccccssccscccssscccccccssscccsscscccsccccsccccccccccccccccccccccccccccscccccccscscscscccccccccccccccccsccccccccscccccccscccccscccccssscccsccscscccccscccccccssccsccssscccccccssccccccccccccc" />
  </g>
</svg>
