<?xml version="1.0" encoding="UTF-8" standalone="no"?>
<svg
   id="Layer_1"
   data-name="Layer 1"
   viewBox="0 0 570 690"
   version="1.1"
   sodipodi:docname="tidy-back-01.svg"
   inkscape:version="1.3.2 (091e20e, 2023-11-25)"
   xmlns:inkscape="http://www.inkscape.org/namespaces/inkscape"
   xmlns:sodipodi="http://sodipodi.sourceforge.net/DTD/sodipodi-0.dtd"
   xmlns="http://www.w3.org/2000/svg"
   xmlns:svg="http://www.w3.org/2000/svg"
   xmlns:rdf="http://www.w3.org/1999/02/22-rdf-syntax-ns#"
   xmlns:cc="http://creativecommons.org/ns#"
   xmlns:dc="http://purl.org/dc/elements/1.1/">
  <sodipodi:namedview
     id="namedview9"
     pagecolor="#ffffff"
     bordercolor="#000000"
     borderopacity="0.25"
     inkscape:showpageshadow="2"
     inkscape:pageopacity="0.0"
     inkscape:pagecheckerboard="0"
     inkscape:deskcolor="#d1d1d1"
     inkscape:zoom="0.34202899"
     inkscape:cx="285.06356"
     inkscape:cy="345"
     inkscape:window-width="1800"
     inkscape:window-height="1097"
     inkscape:window-x="0"
     inkscape:window-y="44"
     inkscape:window-maximized="1"
     inkscape:current-layer="Layer_1" />
  <defs
     id="defs1">
    <style
       id="style1">
  .cls-1{
    fill:#fceaa3;
    }
</style>
  </defs>
  <title
     id="title1">tidy-back</title>
  <path
     class="cls-1"
     d="M185,95.78l55,31.85v63.74l-55,31.85-55-31.85V127.63l55-31.85M185,90l-60,34.75v69.5L185,229l60-34.75v-69.5L185,90Z"
     id="path1"
     style="fill:#ff867f;fill-opacity:1" />
  <path
     class="cls-1"
     d="M60,310.78l55,31.85v63.74L60,438.22,5,406.37V342.63l55-31.85M60,305,0,339.75v69.5L60,444l60-34.75v-69.5L60,305Z"
     id="path2"
     style="fill:#ff867f;fill-opacity:1" />
  <path
     class="cls-1"
     d="M185,310.78l55,31.85v63.74l-55,31.85-55-31.85V342.63l55-31.85m0-5.78-60,34.75v69.5L185,444l60-34.75v-69.5L185,305Z"
     id="path3"
     style="fill:#ff867f;fill-opacity:1" />
  <path
     class="cls-1"
     d="M310,525.78l55,31.85v63.74l-55,31.85-55-31.85V557.63l55-31.85m0-5.78-60,34.75v69.5L310,659l60-34.75v-69.5L310,520Z"
     id="path4"
     style="fill:#ff867f;fill-opacity:1" />
  <path
     class="cls-1"
     d="M435,525.78l55,31.85v63.74l-55,31.85-55-31.85V557.63l55-31.85m0-5.78-60,34.75v69.5L435,659l60-34.75v-69.5L435,520Z"
     id="path5"
     style="fill:#ff867f;fill-opacity:1" />
  <polygon
     class="cls-1"
     points="182 301.75 182 232.25 122 197.5 62 232.25 62 301.75 122 336.5 182 301.75"
     id="polygon5"
     style="fill:#ff867f;fill-opacity:1" />
  <path
     class="cls-1"
     d="M247,203.28l55,31.85v63.74l-55,31.85-55-31.85V235.13l55-31.85m0-5.78-60,34.75v69.5l60,34.75,60-34.75v-69.5L247,197.5Z"
     id="path6"
     style="fill:#ff867f;fill-opacity:1" />
  <path
     class="cls-1"
     d="M247,418.28l55,31.85v63.74l-55,31.85-55-31.85V450.13l55-31.85m0-5.78-60,34.75v69.5l60,34.75,60-34.75v-69.5L247,412.5Z"
     id="path7"
     style="fill:#ff867f;fill-opacity:1" />
  <polygon
     class="cls-1"
     points="432 516.75 432 447.25 372 412.5 312 447.25 312 516.75 372 551.5 432 516.75"
     id="polygon7"
     style="fill:#ff867f;fill-opacity:1" />
  <polygon
     class="cls-1"
     points="182 86.75 182 17.25 122 -17.5 62 17.25 62 86.75 122 121.5 182 86.75"
     id="polygon8"
     style="fill:#ff867f;fill-opacity:1" />
  <polygon
     class="cls-1"
     points="432 662.25 372 627.5 312 662.25 312 690 432 690 432 662.25"
     id="polygon9"
     style="fill:#ff867f;fill-opacity:1" />
  <metadata
     id="metadata9">
    <rdf:RDF>
      <cc:Work
         rdf:about="">
        <dc:title>tidy-back</dc:title>
      </cc:Work>
    </rdf:RDF>
  </metadata>
</svg>
