<?xml version="1.0" encoding="UTF-8" standalone="no"?>
<svg
   id="Layer_1"
   data-name="Layer 1"
   viewBox="0 0 700 952"
   version="1.1"
   sodipodi:docname="tidy-back-02.svg"
   inkscape:version="1.3.2 (091e20e, 2023-11-25)"
   xmlns:inkscape="http://www.inkscape.org/namespaces/inkscape"
   xmlns:sodipodi="http://sodipodi.sourceforge.net/DTD/sodipodi-0.dtd"
   xmlns="http://www.w3.org/2000/svg"
   xmlns:svg="http://www.w3.org/2000/svg"
   xmlns:rdf="http://www.w3.org/1999/02/22-rdf-syntax-ns#"
   xmlns:cc="http://creativecommons.org/ns#"
   xmlns:dc="http://purl.org/dc/elements/1.1/">
  <sodipodi:namedview
     id="namedview12"
     pagecolor="#ffffff"
     bordercolor="#000000"
     borderopacity="0.25"
     inkscape:showpageshadow="2"
     inkscape:pageopacity="0.0"
     inkscape:pagecheckerboard="0"
     inkscape:deskcolor="#d1d1d1"
     inkscape:zoom="0.24789916"
     inkscape:cx="348.9322"
     inkscape:cy="476"
     inkscape:window-width="1800"
     inkscape:window-height="1097"
     inkscape:window-x="0"
     inkscape:window-y="44"
     inkscape:window-maximized="1"
     inkscape:current-layer="Layer_1" />
  <defs
     id="defs1">
    <style
       id="style1">.cls-1{opacity:0.25;}.cls-2,.cls-4{fill:#fff;}.cls-3,.cls-4{opacity:0.5;}</style>
  </defs>
  <title
     id="title1">tidy-back</title>
  <g
     class="cls-1"
     id="g1"
     style="fill:#ff867f;fill-opacity:0.80059969">
    <path
       class="cls-2"
       d="M435,50.78l55,31.85v63.74l-55,31.85-55-31.85V82.63l55-31.85M435,45,375,79.75v69.5L435,184l60-34.75V79.75L435,45Z"
       id="path1"
       style="fill:#ff867f;fill-opacity:0.80059969" />
  </g>
  <g
     class="cls-1"
     id="g2"
     style="fill:#ff867f;fill-opacity:0.80059969">
    <path
       class="cls-2"
       d="M435,265.78l55,31.85v63.74l-55,31.85-55-31.85V297.63l55-31.85m0-5.78-60,34.75v69.5L435,399l60-34.75v-69.5L435,260Z"
       id="path2"
       style="fill:#ff867f;fill-opacity:0.80059969" />
  </g>
  <g
     class="cls-3"
     id="g3"
     style="fill:#ff867f;fill-opacity:0.80059969">
    <path
       class="cls-2"
       d="M435,480.78l55,31.85v63.74l-55,31.85-55-31.85V512.63l55-31.85m0-5.78-60,34.75v69.5L435,614l60-34.75v-69.5L435,475Z"
       id="path3"
       style="fill:#ff867f;fill-opacity:0.80059969" />
  </g>
  <g
     class="cls-3"
     id="g4"
     style="fill:#ff867f;fill-opacity:0.80059969">
    <path
       class="cls-2"
       d="M435,695.78l55,31.85v63.74l-55,31.85-55-31.85V727.63l55-31.85m0-5.78-60,34.75v69.5L435,829l60-34.75v-69.5L435,690Z"
       id="path4"
       style="fill:#ff867f;fill-opacity:0.80059969" />
  </g>
  <g
     class="cls-3"
     id="g5"
     style="fill:#ff867f;fill-opacity:0.80059969">
    <polygon
       class="cls-2"
       points="620 794.25 620 724.75 560 690 500 724.75 500 794.25 560 829 620 794.25"
       id="polygon4"
       style="fill:#ff867f;fill-opacity:0.80059969" />
  </g>
  <g
     class="cls-3"
     id="g6"
     style="fill:#ff867f;fill-opacity:0.80059969">
    <polygon
       class="cls-2"
       points="370 794.25 370 724.75 310 690 250 724.75 250 794.25 310 829 370 794.25"
       id="polygon5"
       style="fill:#ff867f;fill-opacity:0.80059969" />
  </g>
  <g
     class="cls-1"
     id="g7"
     style="fill:#ff867f;fill-opacity:0.80059969">
    <path
       class="cls-2"
       d="M372,158.28l55,31.85v63.74l-55,31.85-55-31.85V190.13l55-31.85m0-5.78-60,34.75v69.5l60,34.75,60-34.75v-69.5L372,152.5Z"
       id="path6"
       style="fill:#ff867f;fill-opacity:0.80059969" />
  </g>
  <g
     class="cls-3"
     id="g8"
     style="fill:#ff867f;fill-opacity:0.80059969">
    <polygon
       class="cls-2"
       points="557 471.75 557 402.25 497 367.5 437 402.25 437 471.75 497 506.5 557 471.75"
       id="polygon7"
       style="fill:#ff867f;fill-opacity:0.80059969" />
  </g>
  <g
     class="cls-3"
     id="g9"
     style="fill:#ff867f;fill-opacity:0.80059969">
    <path
       class="cls-2"
       d="M497,588.28l55,31.85v63.74l-55,31.85-55-31.85V620.13l55-31.85m0-5.78-60,34.75v69.5l60,34.75,60-34.75v-69.5L497,582.5Z"
       id="path8"
       style="fill:#ff867f;fill-opacity:0.80059969" />
  </g>
  <g
     class="cls-3"
     id="g10"
     style="fill:#ff867f;fill-opacity:0.80059969">
    <path
       class="cls-2"
       d="M372,803.28l55,31.85v63.74l-55,31.85-55-31.85V835.13l55-31.85m0-5.78-60,34.75v69.5l60,34.75,60-34.75v-69.5L372,797.5Z"
       id="path9"
       style="fill:#ff867f;fill-opacity:0.80059969" />
  </g>
  <g
     class="cls-3"
     id="g11"
     style="fill:#ff867f;fill-opacity:0.80059969">
    <path
       class="cls-2"
       d="M622,803.28l55,31.85v63.74l-55,31.85-55-31.85V835.13l55-31.85m0-5.78-60,34.75v69.5l60,34.75,60-34.75v-69.5L622,797.5Z"
       id="path10"
       style="fill:#ff867f;fill-opacity:0.80059969" />
  </g>
  <polygon
     class="cls-4"
     points="372 76.5 432 41.75 432 0 312 0 312 41.75 372 76.5"
     id="polygon11"
     style="fill:#ff867f;fill-opacity:0.80059969" />
  <g
     class="cls-3"
     id="g12"
     style="fill:#ff867f;fill-opacity:0.80059969">
    <polygon
       class="cls-2"
       points="370 939.75 310 905 250 939.75 250 952 370 952 370 939.75"
       id="polygon12"
       style="fill:#ff867f;fill-opacity:0.80059969" />
  </g>
  <metadata
     id="metadata12">
    <rdf:RDF>
      <cc:Work
         rdf:about="">
        <dc:title>tidy-back</dc:title>
      </cc:Work>
    </rdf:RDF>
  </metadata>
</svg>
