<?xml version="1.0" encoding="UTF-8" standalone="no"?>
<svg
   id="Layer_1"
   data-name="Layer 1"
   viewBox="0 0 650 450"
   version="1.1"
   sodipodi:docname="tidy-back-03.svg"
   inkscape:version="1.3.2 (091e20e, 2023-11-25)"
   xmlns:inkscape="http://www.inkscape.org/namespaces/inkscape"
   xmlns:sodipodi="http://sodipodi.sourceforge.net/DTD/sodipodi-0.dtd"
   xmlns="http://www.w3.org/2000/svg"
   xmlns:svg="http://www.w3.org/2000/svg"
   xmlns:rdf="http://www.w3.org/1999/02/22-rdf-syntax-ns#"
   xmlns:cc="http://creativecommons.org/ns#"
   xmlns:dc="http://purl.org/dc/elements/1.1/">
  <sodipodi:namedview
     id="namedview5"
     pagecolor="#ffffff"
     bordercolor="#000000"
     borderopacity="0.25"
     inkscape:showpageshadow="2"
     inkscape:pageopacity="0.0"
     inkscape:pagecheckerboard="0"
     inkscape:deskcolor="#d1d1d1"
     inkscape:zoom="0.52444444"
     inkscape:cx="325.10593"
     inkscape:cy="225"
     inkscape:window-width="1800"
     inkscape:window-height="1097"
     inkscape:window-x="0"
     inkscape:window-y="44"
     inkscape:window-maximized="1"
     inkscape:current-layer="Layer_1" />
  <defs
     id="defs1">
    <style
       id="style1">.cls-1{fill:#19152d;}

.cls-2{fill:#fceaa3;}

.cls-3{opacity:0.6;}

.cls-4{fill:#777381;}

.cls-5{fill:#fff;}</style>
  </defs>
  <title
     id="title1">tidy-back</title>
  <polygon
     class="cls-1"
     points="370 272.25 370 202.75 310 168 250 202.75 250 272.25 310 307 370 272.25"
     id="polygon1" />
  <polygon
     class="cls-2"
     points="495 487.25 495 417.75 435 383 375 417.75 375 487.25 435 522 495 487.25"
     id="polygon2"
     style="fill:#ff867f;fill-opacity:0.80000001" />
  <g
     class="cls-3"
     id="g2">
    <path
       class="cls-4"
       d="M185,173.78l55,31.85v63.74l-55,31.85-55-31.85V205.63l55-31.85m0-5.78-60,34.75v69.5L185,307l60-34.75v-69.5L185,168Z"
       id="path2" />
  </g>
  <g
     class="cls-3"
     id="g3">
    <path
       class="cls-4"
       d="M372,66.28l55,31.85v63.74l-55,31.85-55-31.85V98.13l55-31.85m0-5.78L312,95.25v69.5l60,34.75,60-34.75V95.25L372,60.5Z"
       id="path3" />
  </g>
  <g
     class="cls-3"
     id="g4">
    <path
       class="cls-4"
       d="M372,281.28l55,31.85v63.74l-55,31.85-55-31.85V313.13l55-31.85m0-5.78-60,34.75v69.5l60,34.75,60-34.75v-69.5L372,275.5Z"
       id="path4" />
  </g>
  <polygon
     class="cls-2"
     points="310 92 370 57.25 370 0 250 0 250 57.25 310 92"
     id="polygon4"
     style="fill:#ff867f;fill-opacity:0.80000001" />
  <path
     class="cls-5"
     d="M317.73,220.47c0-4.77-3-8.73-8.73-8.73-4,0-7.56,2-10.35,5.22l-4.23-3.87c3.78-4.32,8.91-7.47,15.48-7.47,9.09,0,15,5.49,15,14.4,0,11.79-14.49,16.56-13,29.16H305.4C303.42,235.14,317.73,230,317.73,220.47Zm-14.22,42c0-3.42,2.34-5.76,5.31-5.76a5.68,5.68,0,0,1,0,11.34A5.33,5.33,0,0,1,303.51,262.5Z"
     id="path5" />
  <metadata
     id="metadata5">
    <rdf:RDF>
      <cc:Work
         rdf:about="">
        <dc:title>tidy-back</dc:title>
      </cc:Work>
    </rdf:RDF>
  </metadata>
</svg>
