<?xml version="1.0" encoding="UTF-8" standalone="no"?>
<svg
   id="Layer_1"
   data-name="Layer 1"
   viewBox="0 0 495 620"
   version="1.1"
   width="495"
   height="620"
   xmlns="http://www.w3.org/2000/svg"
   xmlns:svg="http://www.w3.org/2000/svg"
   xmlns:rdf="http://www.w3.org/1999/02/22-rdf-syntax-ns#"
   xmlns:cc="http://creativecommons.org/ns#"
   xmlns:dc="http://purl.org/dc/elements/1.1/">
  <defs
     id="defs1">
    <style
       id="style1">
  .cls-1{
    fill:#fceaa3;
    }
</style>
  </defs>
  <title
     id="title1">tidy-back</title>
  <path
     class="cls-1"
     d="m 185,25.78 55,31.85 v 63.74 l -55,31.85 -55,-31.85 V 57.63 L 185,25.78 M 185,20 125,54.75 v 69.5 l 60,34.75 60,-34.75 v -69.5 z"
     id="path1"
     style="fill:#ff867f;fill-opacity:1" />
  <path
     class="cls-1"
     d="m 60,240.78 55,31.85 v 63.74 L 60,368.22 5,336.37 V 272.63 L 60,240.78 M 60,235 0,269.75 v 69.5 L 60,374 120,339.25 v -69.5 z"
     id="path2"
     style="fill:#ff867f;fill-opacity:1" />
  <path
     class="cls-1"
     d="m 185,240.78 55,31.85 v 63.74 l -55,31.85 -55,-31.85 v -63.74 l 55,-31.85 m 0,-5.78 -60,34.75 v 69.5 l 60,34.75 60,-34.75 v -69.5 z"
     id="path3"
     style="fill:#ff867f;fill-opacity:1" />
  <path
     class="cls-1"
     d="m 310,455.78 55,31.85 v 63.74 l -55,31.85 -55,-31.85 v -63.74 l 55,-31.85 m 0,-5.78 -60,34.75 v 69.5 l 60,34.75 60,-34.75 v -69.5 z"
     id="path4"
     style="fill:#ff867f;fill-opacity:1" />
  <path
     class="cls-1"
     d="m 435,455.78 55,31.85 v 63.74 l -55,31.85 -55,-31.85 v -63.74 l 55,-31.85 m 0,-5.78 -60,34.75 v 69.5 l 60,34.75 60,-34.75 v -69.5 z"
     id="path5"
     style="fill:#ff867f;fill-opacity:1" />
  <polygon
     class="cls-1"
     points="182,301.75 182,232.25 122,197.5 62,232.25 62,301.75 122,336.5 "
     id="polygon5"
     style="fill:#ff867f;fill-opacity:1"
     transform="translate(0,-70)" />
  <path
     class="cls-1"
     d="m 247,133.28 55,31.85 v 63.74 l -55,31.85 -55,-31.85 v -63.74 l 55,-31.85 m 0,-5.78 -60,34.75 v 69.5 l 60,34.75 60,-34.75 v -69.5 z"
     id="path6"
     style="fill:#ff867f;fill-opacity:1" />
  <path
     class="cls-1"
     d="m 247,348.28 55,31.85 v 63.74 l -55,31.85 -55,-31.85 v -63.74 l 55,-31.85 m 0,-5.78 -60,34.75 v 69.5 l 60,34.75 60,-34.75 v -69.5 z"
     id="path7"
     style="fill:#ff867f;fill-opacity:1" />
  <polygon
     class="cls-1"
     points="432,516.75 432,447.25 372,412.5 312,447.25 312,516.75 372,551.5 "
     id="polygon7"
     style="fill:#ff867f;fill-opacity:1"
     transform="translate(0,-70)" />
  <polygon
     class="cls-1"
     points="312,662.25 312,690 432,690 432,662.25 372,627.5 "
     id="polygon9"
     style="fill:#ff867f;fill-opacity:1"
     transform="translate(0,-70)" />
  <metadata
     id="metadata9">
    <rdf:RDF>
      <cc:Work
         rdf:about="">
        <dc:title>tidy-back</dc:title>
      </cc:Work>
    </rdf:RDF>
  </metadata>
</svg>
